<svg xmlns="http://www.w3.org/2000/svg" viewBox="0 0 100 100"><defs><style>.cls-1{fill:#bebebe;}</style></defs><path class="cls-1" d="M39,30.88a4.5,4.5,0,1,1,3.94,5A4.5,4.5,0,0,1,39,30.88Zm46.81-4L81.74,60.68a3,3,0,0,1-3.33,2.62L47.68,59.62,24.45,64.27a3,3,0,0,1-3.53-2.36L14.25,28.57A3,3,0,0,1,16.6,25l9.21-1.84.41-3.42a3,3,0,0,1,3.33-2.62L73,22.37l-3-.35-.69-3.45-10.51,2.1L46.1,19.14l23.45-4.69a3,3,0,0,1,3.53,2.36l1.15,5.71,8.94,1.07A3,3,0,0,1,85.79,26.92Zm-60.49.46-6.93,1.39L22.6,49.93l-.43,3.61Zm9.63,30.71L24.79,56.88a3,3,0,0,1-.85-.25l.7,3.52ZM81.7,27.44,30.07,21.25,26.26,53l51.63,6.19ZM32.51,49.74,73,54.6a1,1,0,0,0,1.11-1.17L71.67,40.09A1,1,0,0,0,70,39.54l-3.37,3.19a1,1,0,0,1-1.58-.28L59.83,32.14A1,1,0,0,0,58.17,32L49,43a1,1,0,0,1-1.17.28l-8.19-3.57a1,1,0,0,0-1.17.28l-6.63,8.1A1,1,0,0,0,32.51,49.74ZM24.25,79.83H20.69V76H19v9.34h1.68V81.27h3.56v4.06h1.68V76H24.25Zm5.69,1.43h3.48V79.91H29.94V77.38h4.32V76h-6v9.34h6.07V83.88H29.94ZM35,77.44h2.48v7.89h1.81V77.44H41.8V76H35Zm19.67.62a4.06,4.06,0,0,1,0,5.17,4.37,4.37,0,0,1-2.94,1.23v1.15H50.32V84.46a4.33,4.33,0,0,1-2.92-1.22,3.72,3.72,0,0,1-.93-2.58,3.66,3.66,0,0,1,1-2.61,4.34,4.34,0,0,1,2.89-1.19V75.71h1.46v1.15A4.32,4.32,0,0,1,54.7,78.06Zm-4.38,0a2.68,2.68,0,0,0-1.63.79,2.78,2.78,0,0,0-.55,1.87,2.32,2.32,0,0,0,2.18,2.52ZM54,80.58a2.31,2.31,0,0,0-2.19-2.51v5.18A2.35,2.35,0,0,0,54,80.58Zm10-3.36A5.44,5.44,0,0,1,65,80.65a5.32,5.32,0,0,1-1.1,3.49A3.57,3.57,0,0,1,61,85.47a3.39,3.39,0,0,1-2.89-1.4,5.6,5.6,0,0,1-1-3.44,5.3,5.3,0,0,1,1.1-3.41,3.56,3.56,0,0,1,2.91-1.37A3.43,3.43,0,0,1,63.94,77.22Zm-.77,3.42a5.09,5.09,0,0,0-.52-2.52A1.72,1.72,0,0,0,61,77.2q-2.16,0-2.16,3.48a4.8,4.8,0,0,0,.55,2.56,1.77,1.77,0,0,0,1.58.88,1.94,1.94,0,0,0,1.53-.76A4.36,4.36,0,0,0,63.17,80.64Zm2.48-3.2h2.48v7.89h1.8V77.44h2.48V76H65.65Zm14.29-.22a5.49,5.49,0,0,1,1,3.43,5.32,5.32,0,0,1-1.09,3.49A3.6,3.6,0,0,1,77,85.47a3.41,3.41,0,0,1-2.9-1.4,5.6,5.6,0,0,1-1-3.44,5.25,5.25,0,0,1,1.1-3.41,3.54,3.54,0,0,1,2.9-1.37A3.46,3.46,0,0,1,79.94,77.22Zm-.77,3.42a5.2,5.2,0,0,0-.52-2.52A1.74,1.74,0,0,0,77,77.2q-2.16,0-2.16,3.48a4.8,4.8,0,0,0,.55,2.56,1.75,1.75,0,0,0,1.57.88,2,2,0,0,0,1.54-.76A4.36,4.36,0,0,0,79.17,80.64ZM97,0H84V2H97a1,1,0,0,1,1,1V16h2V3A3,3,0,0,0,97,0ZM2,3A1,1,0,0,1,3,2H16V0H3A3,3,0,0,0,0,3V16H2ZM98,97a1,1,0,0,1-1,1H84v2H97a3,3,0,0,0,3-3V84H98ZM2,97V84H0V97a3,3,0,0,0,3,3H16V98H3A1,1,0,0,1,2,97Z"/></svg>